<svg width="192" height="192" viewBox="0 0 192 192" fill="none" xmlns="http://www.w3.org/2000/svg">
  <rect width="192" height="192" rx="24" fill="#4169e1"/>
  <rect x="24" y="48" width="144" height="96" rx="8" fill="white"/>
  <rect x="36" y="60" width="16" height="16" rx="4" fill="#4169e1"/>
  <rect x="60" y="60" width="16" height="16" rx="4" fill="#e5e7eb"/>
  <rect x="84" y="60" width="16" height="16" rx="4" fill="#4169e1"/>
  <rect x="108" y="60" width="16" height="16" rx="4" fill="#4169e1"/>
  <rect x="132" y="60" width="16" height="16" rx="4" fill="#e5e7eb"/>
  <rect x="36" y="84" width="16" height="16" rx="4" fill="#e5e7eb"/>
  <rect x="60" y="84" width="16" height="16" rx="4" fill="#4169e1"/>
  <rect x="84" y="84" width="16" height="16" rx="4" fill="#e5e7eb"/>
  <rect x="108" y="84" width="16" height="16" rx="4" fill="#4169e1"/>
  <rect x="132" y="84" width="16" height="16" rx="4" fill="#4169e1"/>
  <rect x="36" y="108" width="16" height="16" rx="4" fill="#4169e1"/>
  <rect x="60" y="108" width="16" height="16" rx="4" fill="#4169e1"/>
  <rect x="84" y="108" width="16" height="16" rx="4" fill="#4169e1"/>
  <rect x="108" y="108" width="16" height="16" rx="4" fill="#e5e7eb"/>
  <rect x="132" y="108" width="16" height="16" rx="4" fill="#4169e1"/>
</svg> 